<mxfile host="app.diagrams.net" agent="Mozilla/5.0 (Macintosh; Intel Mac OS X 10_15_7) AppleWebKit/537.36 (KHTML, like Gecko) Chrome/133.0.0.0 Safari/537.36" version="26.1.0">
  <diagram name="Page-1" id="AIPoxRdhrtce3UdJt4KN">
    <mxGraphModel dx="1026" dy="609" grid="0" gridSize="10" guides="1" tooltips="1" connect="1" arrows="1" fold="1" page="1" pageScale="1" pageWidth="827" pageHeight="1169" math="0" shadow="0">
      <root>
        <mxCell id="0" />
        <mxCell id="1" parent="0" />
        <mxCell id="sGVSHZmp7kZCRn9jOwzH-1" value="Delivery Workflow (Temporal)" style="rounded=0;whiteSpace=wrap;html=1;fillColor=light-dark(#FFF4C3,var(--ge-dark-color, #121212));strokeColor=light-dark(#FFD966,#FFFFFF);" parent="1" vertex="1">
          <mxGeometry x="340" y="112" width="222" height="77" as="geometry" />
        </mxCell>
        <mxCell id="N_pRQEPDte80IIOeTLnO-1" value="Order Service" style="rounded=0;whiteSpace=wrap;html=1;fillColor=#fff2cc;strokeColor=#d6b656;" parent="1" vertex="1">
          <mxGeometry x="211" y="240" width="121" height="57.5" as="geometry" />
        </mxCell>
        <mxCell id="N_pRQEPDte80IIOeTLnO-2" value="" style="endArrow=classic;startArrow=classic;html=1;rounded=0;entryX=0;entryY=0.5;entryDx=0;entryDy=0;edgeStyle=orthogonalEdgeStyle;" parent="1" target="sGVSHZmp7kZCRn9jOwzH-1" edge="1">
          <mxGeometry width="50" height="50" relative="1" as="geometry">
            <mxPoint x="299" y="240" as="sourcePoint" />
            <mxPoint x="159.25" y="147" as="targetPoint" />
            <Array as="points">
              <mxPoint x="299" y="240" />
              <mxPoint x="299" y="151" />
            </Array>
          </mxGeometry>
        </mxCell>
        <mxCell id="N_pRQEPDte80IIOeTLnO-3" value="1. Update OrderStatus to &quot;Finding Driver&quot;" style="text;html=1;align=center;verticalAlign=middle;whiteSpace=wrap;rounded=0;" parent="1" vertex="1">
          <mxGeometry x="151" y="105" width="135" height="30" as="geometry" />
        </mxCell>
        <mxCell id="FCyn03ZtiModcpzmfuNr-1" style="edgeStyle=orthogonalEdgeStyle;rounded=0;orthogonalLoop=1;jettySize=auto;html=1;exitX=0;exitY=0.5;exitDx=0;exitDy=0;entryX=0.25;entryY=0;entryDx=0;entryDy=0;startArrow=classic;startFill=1;" edge="1" parent="1" source="N_pRQEPDte80IIOeTLnO-4" target="N_pRQEPDte80IIOeTLnO-18">
          <mxGeometry relative="1" as="geometry" />
        </mxCell>
        <mxCell id="N_pRQEPDte80IIOeTLnO-4" value="Driver Service" style="rounded=0;whiteSpace=wrap;html=1;fillColor=#fff2cc;strokeColor=#d6b656;" parent="1" vertex="1">
          <mxGeometry x="226" y="394" width="121" height="57.5" as="geometry" />
        </mxCell>
        <mxCell id="FCyn03ZtiModcpzmfuNr-3" style="edgeStyle=orthogonalEdgeStyle;rounded=0;orthogonalLoop=1;jettySize=auto;html=1;exitX=1;exitY=0.5;exitDx=0;exitDy=0;entryX=1;entryY=0.5;entryDx=0;entryDy=0;" edge="1" parent="1" source="N_pRQEPDte80IIOeTLnO-5" target="N_pRQEPDte80IIOeTLnO-26">
          <mxGeometry relative="1" as="geometry">
            <Array as="points">
              <mxPoint x="722" y="269" />
              <mxPoint x="722" y="585" />
            </Array>
          </mxGeometry>
        </mxCell>
        <mxCell id="N_pRQEPDte80IIOeTLnO-5" value="Notification Service" style="rounded=0;whiteSpace=wrap;html=1;fillColor=#fff2cc;strokeColor=#d6b656;" parent="1" vertex="1">
          <mxGeometry x="520.5" y="240" width="121" height="57.5" as="geometry" />
        </mxCell>
        <mxCell id="N_pRQEPDte80IIOeTLnO-7" value="" style="endArrow=classic;startArrow=classic;html=1;rounded=0;exitX=0.5;exitY=0;exitDx=0;exitDy=0;edgeStyle=orthogonalEdgeStyle;entryX=0.081;entryY=0.972;entryDx=0;entryDy=0;entryPerimeter=0;" parent="1" source="N_pRQEPDte80IIOeTLnO-4" target="sGVSHZmp7kZCRn9jOwzH-1" edge="1">
          <mxGeometry width="50" height="50" relative="1" as="geometry">
            <mxPoint x="398" y="240" as="sourcePoint" />
            <mxPoint x="378" y="216" as="targetPoint" />
            <Array as="points">
              <mxPoint x="287" y="326" />
              <mxPoint x="358" y="326" />
            </Array>
          </mxGeometry>
        </mxCell>
        <mxCell id="N_pRQEPDte80IIOeTLnO-11" value="2. Send Order Info to all Drivers" style="text;html=1;align=center;verticalAlign=middle;whiteSpace=wrap;rounded=0;" parent="1" vertex="1">
          <mxGeometry x="588" y="189" width="92" height="30" as="geometry" />
        </mxCell>
        <mxCell id="N_pRQEPDte80IIOeTLnO-16" value="&lt;font style=&quot;color: rgb(77, 153, 0);&quot;&gt;4a. Driver Accepts Delivery&lt;/font&gt;" style="text;html=1;align=center;verticalAlign=middle;whiteSpace=wrap;rounded=0;" parent="1" vertex="1">
          <mxGeometry x="461" y="427" width="105" height="30" as="geometry" />
        </mxCell>
        <mxCell id="N_pRQEPDte80IIOeTLnO-18" value="&lt;u&gt;Admin Frontend&lt;/u&gt;&lt;div&gt;- View all ongoing orders&lt;br&gt;&lt;/div&gt;&lt;div&gt;- Assign Drivers to Delivery&lt;/div&gt;" style="rounded=0;whiteSpace=wrap;html=1;" parent="1" vertex="1">
          <mxGeometry x="113.5" y="555" width="216" height="60" as="geometry" />
        </mxCell>
        <mxCell id="N_pRQEPDte80IIOeTLnO-23" value="" style="endArrow=classic;startArrow=classic;html=1;rounded=0;entryX=1;entryY=0.75;entryDx=0;entryDy=0;exitX=0.5;exitY=0;exitDx=0;exitDy=0;edgeStyle=orthogonalEdgeStyle;" parent="1" source="N_pRQEPDte80IIOeTLnO-5" target="sGVSHZmp7kZCRn9jOwzH-1" edge="1">
          <mxGeometry width="50" height="50" relative="1" as="geometry">
            <mxPoint x="659" y="260" as="sourcePoint" />
            <mxPoint x="582" y="171" as="targetPoint" />
            <Array as="points">
              <mxPoint x="581" y="170" />
            </Array>
          </mxGeometry>
        </mxCell>
        <mxCell id="N_pRQEPDte80IIOeTLnO-24" value="&lt;font style=&quot;color: rgb(153, 0, 0);&quot;&gt;4b. Admin manually assigns Driver to Delivery&lt;/font&gt;" style="text;html=1;align=center;verticalAlign=middle;whiteSpace=wrap;rounded=0;" parent="1" vertex="1">
          <mxGeometry x="174" y="478" width="109" height="40" as="geometry" />
        </mxCell>
        <mxCell id="N_pRQEPDte80IIOeTLnO-25" value="6. Update OrderStatus to &quot;Driver Found&quot;" style="text;html=1;align=center;verticalAlign=middle;whiteSpace=wrap;rounded=0;" parent="1" vertex="1">
          <mxGeometry x="151" y="137.5" width="135" height="30" as="geometry" />
        </mxCell>
        <mxCell id="FCyn03ZtiModcpzmfuNr-2" style="edgeStyle=orthogonalEdgeStyle;rounded=0;orthogonalLoop=1;jettySize=auto;html=1;exitX=0.5;exitY=0;exitDx=0;exitDy=0;entryX=1;entryY=0.5;entryDx=0;entryDy=0;startArrow=classic;startFill=1;" edge="1" parent="1" source="N_pRQEPDte80IIOeTLnO-26" target="N_pRQEPDte80IIOeTLnO-4">
          <mxGeometry relative="1" as="geometry" />
        </mxCell>
        <mxCell id="N_pRQEPDte80IIOeTLnO-26" value="&lt;u&gt;Driver Frontend&lt;/u&gt;&lt;div&gt;- Manage assigned Deliveries&lt;br&gt;&lt;/div&gt;&lt;div&gt;- View all available Deliveries&lt;/div&gt;&lt;div&gt;- Accepts Delivery&lt;/div&gt;" style="rounded=0;whiteSpace=wrap;html=1;" parent="1" vertex="1">
          <mxGeometry x="347" y="555" width="216" height="60" as="geometry" />
        </mxCell>
        <mxCell id="N_pRQEPDte80IIOeTLnO-28" value="7. Assign Order to Driver" style="text;html=1;align=center;verticalAlign=middle;whiteSpace=wrap;rounded=0;" parent="1" vertex="1">
          <mxGeometry x="356" y="247" width="125" height="30" as="geometry" />
        </mxCell>
        <mxCell id="N_pRQEPDte80IIOeTLnO-29" value="8. Wait for Pickup Signal from Driver Service within appropriate time" style="text;html=1;align=center;verticalAlign=middle;whiteSpace=wrap;rounded=0;" parent="1" vertex="1">
          <mxGeometry x="347" y="54" width="208" height="30" as="geometry" />
        </mxCell>
        <mxCell id="N_pRQEPDte80IIOeTLnO-30" value="&lt;font style=&quot;&quot;&gt;9b. If Pickup Signal is not received within appropriate time, send notification to Admin&lt;/font&gt;" style="text;html=1;align=center;verticalAlign=middle;whiteSpace=wrap;rounded=0;fontColor=#CC0000;" parent="1" vertex="1">
          <mxGeometry x="493" y="302" width="176" height="40" as="geometry" />
        </mxCell>
        <mxCell id="N_pRQEPDte80IIOeTLnO-33" value="&lt;font style=&quot;&quot;&gt;9a3. Update OrderStatus to &quot;Package Picked up&quot;&lt;/font&gt;" style="text;html=1;align=center;verticalAlign=middle;whiteSpace=wrap;rounded=0;fontColor=#336600;" parent="1" vertex="1">
          <mxGeometry x="147" y="171" width="136" height="30" as="geometry" />
        </mxCell>
        <mxCell id="N_pRQEPDte80IIOeTLnO-34" value="10. Wait for Delivered Signal from Driver Service within appropriate time" style="text;html=1;align=center;verticalAlign=middle;whiteSpace=wrap;rounded=0;" parent="1" vertex="1">
          <mxGeometry x="347" y="84" width="208" height="30" as="geometry" />
        </mxCell>
        <mxCell id="N_pRQEPDte80IIOeTLnO-35" value="&lt;font style=&quot;&quot;&gt;9a1. Driver indicates package is picked up&lt;/font&gt;" style="text;html=1;align=center;verticalAlign=middle;whiteSpace=wrap;rounded=0;fontColor=#336600;" parent="1" vertex="1">
          <mxGeometry x="461" y="457" width="123" height="34" as="geometry" />
        </mxCell>
        <mxCell id="N_pRQEPDte80IIOeTLnO-38" value="&lt;font style=&quot;&quot;&gt;9a2. Receives pickup indicator and sends Pickup Signal&lt;/font&gt;" style="text;html=1;align=center;verticalAlign=middle;whiteSpace=wrap;rounded=0;fontColor=#336600;" parent="1" vertex="1">
          <mxGeometry x="356" y="279" width="138" height="34" as="geometry" />
        </mxCell>
        <mxCell id="N_pRQEPDte80IIOeTLnO-39" value="&lt;font style=&quot;&quot;&gt;11a1. Driver indicates package is delivered&lt;/font&gt;" style="text;html=1;align=center;verticalAlign=middle;whiteSpace=wrap;rounded=0;fontColor=#66CC00;" parent="1" vertex="1">
          <mxGeometry x="461" y="491" width="121.5" height="34" as="geometry" />
        </mxCell>
        <mxCell id="N_pRQEPDte80IIOeTLnO-40" value="&lt;font style=&quot;&quot;&gt;11a2. Receives delivered indicator and sends Delivered Signal&lt;/font&gt;" style="text;html=1;align=center;verticalAlign=middle;whiteSpace=wrap;rounded=0;fontColor=#66CC00;" parent="1" vertex="1">
          <mxGeometry x="356" y="323" width="136" height="37" as="geometry" />
        </mxCell>
        <mxCell id="N_pRQEPDte80IIOeTLnO-41" value="&lt;font style=&quot;&quot;&gt;11a3. Update OrderStatus to &quot;Package Delivered&quot;&lt;/font&gt;" style="text;html=1;align=center;verticalAlign=middle;whiteSpace=wrap;rounded=0;fontColor=#66CC00;" parent="1" vertex="1">
          <mxGeometry x="150" y="203" width="143" height="30" as="geometry" />
        </mxCell>
        <mxCell id="N_pRQEPDte80IIOeTLnO-42" value="&lt;font style=&quot;&quot;&gt;11b. If Delivered Signal is not received within appropriate time, send notification to Admin&lt;/font&gt;" style="text;html=1;align=center;verticalAlign=middle;whiteSpace=wrap;rounded=0;fontColor=#660000;" parent="1" vertex="1">
          <mxGeometry x="493" y="351" width="176" height="40" as="geometry" />
        </mxCell>
        <mxCell id="FCyn03ZtiModcpzmfuNr-4" value="3. Sends notification to all online drivers" style="text;html=1;align=center;verticalAlign=middle;whiteSpace=wrap;rounded=0;" vertex="1" parent="1">
          <mxGeometry x="723" y="417" width="92" height="30" as="geometry" />
        </mxCell>
        <mxCell id="FCyn03ZtiModcpzmfuNr-6" value="5. Receives driverfound indicator and sends driverfound indicator" style="text;html=1;align=center;verticalAlign=middle;whiteSpace=wrap;rounded=0;" vertex="1" parent="1">
          <mxGeometry x="356" y="203" width="125" height="30" as="geometry" />
        </mxCell>
      </root>
    </mxGraphModel>
  </diagram>
</mxfile>
